<?xml version="1.0" encoding="us-ascii" standalone="no"?><svg xmlns="http://www.w3.org/2000/svg" xmlns:xlink="http://www.w3.org/1999/xlink" contentStyleType="text/css" height="268px" preserveAspectRatio="none" style="width:755px;height:268px;background:#FFFFFF;" version="1.1" viewBox="0 0 755 268" width="755px" zoomAndPan="magnify"><defs/><g><!--class Ingredient--><g id="elem_Ingredient"><rect codeLine="4" fill="#F1F1F1" height="56.2969" id="Ingredient" rx="2.5" ry="2.5" style="stroke:#181818;stroke-width:0.5;" width="118" x="595" y="23.3"/><ellipse cx="617.2" cy="39.3" fill="#ADD1B2" rx="11" ry="11" style="stroke:#181818;stroke-width:1.0;"/><path d="M620.1688,44.9406 Q619.5906,45.2375 618.95,45.3781 Q618.3094,45.5344 617.6063,45.5344 Q615.1063,45.5344 613.7781,43.8938 Q612.4656,42.2375 612.4656,39.1125 Q612.4656,35.9875 613.7781,34.3313 Q615.1063,32.675 617.6063,32.675 Q618.3094,32.675 618.95,32.8313 Q619.6063,32.9875 620.1688,33.2844 L620.1688,36.0031 Q619.5438,35.425 618.95,35.1594 Q618.3563,34.8781 617.7313,34.8781 Q616.3875,34.8781 615.7,35.9563 Q615.0125,37.0188 615.0125,39.1125 Q615.0125,41.2063 615.7,42.2844 Q616.3875,43.3469 617.7313,43.3469 Q618.3563,43.3469 618.95,43.0813 Q619.5438,42.8 620.1688,42.2219 L620.1688,44.9406 Z " fill="#000000"/><text fill="#000000" font-family="sans-serif" font-size="14" lengthAdjust="spacing" textLength="70" x="632.8" y="44.1467">Ingredient</text><line style="stroke:#181818;stroke-width:0.5;" x1="596" x2="712" y1="55.3" y2="55.3"/><rect fill="none" height="6" style="stroke:#C82930;stroke-width:1.0;" width="6" x="603" y="65.9484"/><text fill="#000000" font-family="sans-serif" font-size="14" lengthAdjust="spacing" textLength="92" x="615" y="72.2951">name : String</text></g><!--class IngredientCost--><g id="elem_IngredientCost"><rect codeLine="8" fill="#F1F1F1" height="88.8906" id="IngredientCost" rx="2.5" ry="2.5" style="stroke:#181818;stroke-width:0.5;" width="189" x="559.5" y="172.89"/><ellipse cx="599.25" cy="188.89" fill="#ADD1B2" rx="11" ry="11" style="stroke:#181818;stroke-width:1.0;"/><path d="M602.2188,194.5306 Q601.6406,194.8275 601,194.9681 Q600.3594,195.1244 599.6563,195.1244 Q597.1563,195.1244 595.8281,193.4838 Q594.5156,191.8275 594.5156,188.7025 Q594.5156,185.5775 595.8281,183.9213 Q597.1563,182.265 599.6563,182.265 Q600.3594,182.265 601,182.4213 Q601.6563,182.5775 602.2188,182.8744 L602.2188,185.5931 Q601.5938,185.015 601,184.7494 Q600.4063,184.4681 599.7813,184.4681 Q598.4375,184.4681 597.75,185.5463 Q597.0625,186.6088 597.0625,188.7025 Q597.0625,190.7963 597.75,191.8744 Q598.4375,192.9369 599.7813,192.9369 Q600.4063,192.9369 601,192.6713 Q601.5938,192.39 602.2188,191.8119 L602.2188,194.5306 Z " fill="#000000"/><text fill="#000000" font-family="sans-serif" font-size="14" lengthAdjust="spacing" textLength="102" x="618.75" y="193.7367">IngredientCost</text><line style="stroke:#181818;stroke-width:0.5;" x1="560.5" x2="747.5" y1="204.89" y2="204.89"/><rect fill="none" height="6" style="stroke:#C82930;stroke-width:1.0;" width="6" x="567.5" y="215.5384"/><text fill="#000000" font-family="sans-serif" font-size="14" lengthAdjust="spacing" textLength="115" x="579.5" y="221.8851">start_date : Date</text><rect fill="none" height="6" style="stroke:#C82930;stroke-width:1.0;" width="6" x="567.5" y="231.8353"/><text fill="#000000" font-family="sans-serif" font-size="14" lengthAdjust="spacing" textLength="111" x="579.5" y="238.182">end_date : Date</text><rect fill="none" height="6" style="stroke:#C82930;stroke-width:1.0;" width="6" x="567.5" y="248.1322"/><text fill="#000000" font-family="sans-serif" font-size="14" lengthAdjust="spacing" textLength="163" x="579.5" y="254.4789">cost_per_gram : double</text></g><!--class Dish--><g id="elem_Dish"><rect codeLine="16" fill="#F1F1F1" height="88.8906" id="Dish" rx="2.5" ry="2.5" style="stroke:#181818;stroke-width:0.5;" width="202" x="7" y="7"/><ellipse cx="88.25" cy="23" fill="#ADD1B2" rx="11" ry="11" style="stroke:#181818;stroke-width:1.0;"/><path d="M91.2188,28.6406 Q90.6406,28.9375 90,29.0781 Q89.3594,29.2344 88.6563,29.2344 Q86.1563,29.2344 84.8281,27.5938 Q83.5156,25.9375 83.5156,22.8125 Q83.5156,19.6875 84.8281,18.0313 Q86.1563,16.375 88.6563,16.375 Q89.3594,16.375 90,16.5313 Q90.6563,16.6875 91.2188,16.9844 L91.2188,19.7031 Q90.5938,19.125 90,18.8594 Q89.4063,18.5781 88.7813,18.5781 Q87.4375,18.5781 86.75,19.6563 Q86.0625,20.7188 86.0625,22.8125 Q86.0625,24.9063 86.75,25.9844 Q87.4375,27.0469 88.7813,27.0469 Q89.4063,27.0469 90,26.7813 Q90.5938,26.5 91.2188,25.9219 L91.2188,28.6406 Z " fill="#000000"/><text fill="#000000" font-family="sans-serif" font-size="14" lengthAdjust="spacing" textLength="31" x="108.75" y="27.8467">Dish</text><line style="stroke:#181818;stroke-width:0.5;" x1="8" x2="208" y1="39" y2="39"/><rect fill="none" height="6" style="stroke:#C82930;stroke-width:1.0;" width="6" x="15" y="49.6484"/><text fill="#000000" font-family="sans-serif" font-size="14" lengthAdjust="spacing" textLength="92" x="27" y="55.9951">name : String</text><rect fill="none" height="6" style="stroke:#C82930;stroke-width:1.0;" width="6" x="15" y="65.9453"/><text fill="#000000" font-family="sans-serif" font-size="14" lengthAdjust="spacing" textLength="95" x="27" y="72.292">price : double</text><rect fill="none" height="6" style="stroke:#C82930;stroke-width:1.0;" width="6" x="15" y="82.2422"/><text fill="#000000" font-family="sans-serif" font-size="14" lengthAdjust="spacing" textLength="176" x="27" y="88.5889">weight_in_grams : double</text></g><!--class Usage--><g id="elem_Usage"><rect codeLine="22" fill="#F1F1F1" height="56.2969" id="Usage" rx="2.5" ry="2.5" style="stroke:#181818;stroke-width:0.5;" width="202" x="289" y="23.3"/><ellipse cx="363.75" cy="39.3" fill="#ADD1B2" rx="11" ry="11" style="stroke:#181818;stroke-width:1.0;"/><path d="M366.7188,44.9406 Q366.1406,45.2375 365.5,45.3781 Q364.8594,45.5344 364.1563,45.5344 Q361.6563,45.5344 360.3281,43.8938 Q359.0156,42.2375 359.0156,39.1125 Q359.0156,35.9875 360.3281,34.3313 Q361.6563,32.675 364.1563,32.675 Q364.8594,32.675 365.5,32.8313 Q366.1563,32.9875 366.7188,33.2844 L366.7188,36.0031 Q366.0938,35.425 365.5,35.1594 Q364.9063,34.8781 364.2813,34.8781 Q362.9375,34.8781 362.25,35.9563 Q361.5625,37.0188 361.5625,39.1125 Q361.5625,41.2063 362.25,42.2844 Q362.9375,43.3469 364.2813,43.3469 Q364.9063,43.3469 365.5,43.0813 Q366.0938,42.8 366.7188,42.2219 L366.7188,44.9406 Z " fill="#000000"/><text fill="#000000" font-family="sans-serif" font-size="14" lengthAdjust="spacing" textLength="44" x="384.25" y="44.1467">Usage</text><line style="stroke:#181818;stroke-width:0.5;" x1="290" x2="490" y1="55.3" y2="55.3"/><rect fill="none" height="6" style="stroke:#C82930;stroke-width:1.0;" width="6" x="297" y="65.9484"/><text fill="#000000" font-family="sans-serif" font-size="14" lengthAdjust="spacing" textLength="176" x="309" y="72.2951">weight_in_grams : double</text></g><!--link Ingredient to IngredientCost--><g id="link_Ingredient_IngredientCost"><path codeLine="14" d="M654,79.88 C654,105.12 654,142.99 654,172.43 " fill="none" id="Ingredient-IngredientCost" style="stroke:#181818;stroke-width:1.0;"/><polygon fill="#000000" points="659,139.4564,661.9389,130.4113,656.0611,130.4113,659,139.4564" style="stroke:#000000;stroke-width:1.0;"/><text fill="#000000" font-family="sans-serif" font-size="13" lengthAdjust="spacing" textLength="23" x="668" y="138.9569">has</text><text fill="#000000" font-family="sans-serif" font-size="13" lengthAdjust="spacing" textLength="8" x="645.125" y="99.8215">1</text><text fill="#000000" font-family="sans-serif" font-size="13" lengthAdjust="spacing" textLength="23" x="629.3109" y="161.8096">0..*</text></g><!--link Usage to Ingredient--><g id="link_Usage_Ingredient"><path codeLine="26" d="M491.31,51.44 C526.21,51.44 564.14,51.44 594.59,51.44 " fill="none" id="Usage-Ingredient" style="stroke:#181818;stroke-width:1.0;"/><polygon fill="#000000" points="518.5,40.0064,509.4549,37.0675,509.4549,42.9453,518.5,40.0064" style="stroke:#000000;stroke-width:1.0;"/><text fill="#000000" font-family="sans-serif" font-size="13" lengthAdjust="spacing" textLength="54" x="522.5" y="44.5069">contains</text><text fill="#000000" font-family="sans-serif" font-size="13" lengthAdjust="spacing" textLength="23" x="498.8894" y="64.0147">0..*</text><text fill="#000000" font-family="sans-serif" font-size="13" lengthAdjust="spacing" textLength="8" x="578.8619" y="47.5999">1</text></g><!--link Dish to Usage--><g id="link_Dish_Usage"><path codeLine="27" d="M209.41,51.44 C235.15,51.44 262.8,51.44 288.54,51.44 " fill="none" id="Dish-Usage" style="stroke:#181818;stroke-width:1.0;"/><polygon fill="#000000" points="236.5,40.0064,227.4549,37.0675,227.4549,42.9453,236.5,40.0064" style="stroke:#000000;stroke-width:1.0;"/><text fill="#000000" font-family="sans-serif" font-size="13" lengthAdjust="spacing" textLength="30" x="240.5" y="44.5069">uses</text><text fill="#000000" font-family="sans-serif" font-size="13" lengthAdjust="spacing" textLength="8" x="217.151" y="47.9606">1</text><text fill="#000000" font-family="sans-serif" font-size="13" lengthAdjust="spacing" textLength="23" x="257.9505" y="64.0147">0..*</text></g><!--SRC=[VOyn2y8m48Nt_eeZez2YQmONkpYBSqYJ8mqqQScbY8Z_tJQrMgsO9V3klNlVrLOZeElY5How2WDbcMea4Hoz2QWj-WYt38QNU-aGE9nYiDvazxNnqDBBJ566ABICOwGSlab6hzUY6dAYmo1Ca6wOwBQl6XmR5X1ino3FWMsBOiE-IpdKac0_8vMMwj_KIUg2LVZkITe5hQcZi3v1q0V5jFHCqk2yzPzzCZv1ymI-k8E3QdsKre-y2JHTDlkdC8UUS3Gy0000]--></g></svg>