<?xml version="1.0" encoding="us-ascii" standalone="no"?><svg xmlns="http://www.w3.org/2000/svg" xmlns:xlink="http://www.w3.org/1999/xlink" contentStyleType="text/css" height="268px" preserveAspectRatio="none" style="width:755px;height:268px;background:#FFFFFF;" version="1.1" viewBox="0 0 755 268" width="755px" zoomAndPan="magnify"><defs/><g><!--class INGREDIENT--><g id="elem_INGREDIENT"><rect codeLine="4" fill="#F1F1F1" height="56.2969" id="INGREDIENT" rx="2.5" ry="2.5" style="stroke:#181818;stroke-width:0.5;" width="118" x="595" y="23.3"/><ellipse cx="610.45" cy="39.3" fill="#ADD1B2" rx="11" ry="11" style="stroke:#181818;stroke-width:1.0;"/><path d="M613.4188,44.9406 Q612.8406,45.2375 612.2,45.3781 Q611.5594,45.5344 610.8563,45.5344 Q608.3563,45.5344 607.0281,43.8938 Q605.7156,42.2375 605.7156,39.1125 Q605.7156,35.9875 607.0281,34.3313 Q608.3563,32.675 610.8563,32.675 Q611.5594,32.675 612.2,32.8313 Q612.8563,32.9875 613.4188,33.2844 L613.4188,36.0031 Q612.7938,35.425 612.2,35.1594 Q611.6063,34.8781 610.9813,34.8781 Q609.6375,34.8781 608.95,35.9563 Q608.2625,37.0188 608.2625,39.1125 Q608.2625,41.2063 608.95,42.2844 Q609.6375,43.3469 610.9813,43.3469 Q611.6063,43.3469 612.2,43.0813 Q612.7938,42.8 613.4188,42.2219 L613.4188,44.9406 Z " fill="#000000"/><text fill="#000000" font-family="sans-serif" font-size="14" lengthAdjust="spacing" textLength="85" x="624.55" y="44.1467">INGREDIENT</text><line style="stroke:#181818;stroke-width:0.5;" x1="596" x2="712" y1="55.3" y2="55.3"/><rect fill="none" height="6" style="stroke:#C82930;stroke-width:1.0;" width="6" x="603" y="65.9484"/><text fill="#000000" font-family="sans-serif" font-size="14" lengthAdjust="spacing" textLength="92" x="615" y="72.2951">name : String</text></g><!--class INGREDIENT_COST--><g id="elem_INGREDIENT_COST"><rect codeLine="8" fill="#F1F1F1" height="88.8906" id="INGREDIENT_COST" rx="2.5" ry="2.5" style="stroke:#181818;stroke-width:0.5;" width="189" x="559.5" y="172.89"/><ellipse cx="586.2" cy="188.89" fill="#ADD1B2" rx="11" ry="11" style="stroke:#181818;stroke-width:1.0;"/><path d="M589.1688,194.5306 Q588.5906,194.8275 587.95,194.9681 Q587.3094,195.1244 586.6063,195.1244 Q584.1063,195.1244 582.7781,193.4838 Q581.4656,191.8275 581.4656,188.7025 Q581.4656,185.5775 582.7781,183.9213 Q584.1063,182.265 586.6063,182.265 Q587.3094,182.265 587.95,182.4213 Q588.6063,182.5775 589.1688,182.8744 L589.1688,185.5931 Q588.5438,185.015 587.95,184.7494 Q587.3563,184.4681 586.7313,184.4681 Q585.3875,184.4681 584.7,185.5463 Q584.0125,186.6088 584.0125,188.7025 Q584.0125,190.7963 584.7,191.8744 Q585.3875,192.9369 586.7313,192.9369 Q587.3563,192.9369 587.95,192.6713 Q588.5438,192.39 589.1688,191.8119 L589.1688,194.5306 Z " fill="#000000"/><text fill="#000000" font-family="sans-serif" font-size="14" lengthAdjust="spacing" textLength="131" x="602.8" y="193.7367">INGREDIENT_COST</text><line style="stroke:#181818;stroke-width:0.5;" x1="560.5" x2="747.5" y1="204.89" y2="204.89"/><rect fill="none" height="6" style="stroke:#C82930;stroke-width:1.0;" width="6" x="567.5" y="215.5384"/><text fill="#000000" font-family="sans-serif" font-size="14" lengthAdjust="spacing" textLength="115" x="579.5" y="221.8851">start_date : Date</text><rect fill="none" height="6" style="stroke:#C82930;stroke-width:1.0;" width="6" x="567.5" y="231.8353"/><text fill="#000000" font-family="sans-serif" font-size="14" lengthAdjust="spacing" textLength="111" x="579.5" y="238.182">end_date : Date</text><rect fill="none" height="6" style="stroke:#C82930;stroke-width:1.0;" width="6" x="567.5" y="248.1322"/><text fill="#000000" font-family="sans-serif" font-size="14" lengthAdjust="spacing" textLength="163" x="579.5" y="254.4789">cost_per_gram : double</text></g><!--class DISH--><g id="elem_DISH"><rect codeLine="16" fill="#F1F1F1" height="88.8906" id="DISH" rx="2.5" ry="2.5" style="stroke:#181818;stroke-width:0.5;" width="202" x="7" y="7"/><ellipse cx="87.25" cy="23" fill="#ADD1B2" rx="11" ry="11" style="stroke:#181818;stroke-width:1.0;"/><path d="M90.2188,28.6406 Q89.6406,28.9375 89,29.0781 Q88.3594,29.2344 87.6563,29.2344 Q85.1563,29.2344 83.8281,27.5938 Q82.5156,25.9375 82.5156,22.8125 Q82.5156,19.6875 83.8281,18.0313 Q85.1563,16.375 87.6563,16.375 Q88.3594,16.375 89,16.5313 Q89.6563,16.6875 90.2188,16.9844 L90.2188,19.7031 Q89.5938,19.125 89,18.8594 Q88.4063,18.5781 87.7813,18.5781 Q86.4375,18.5781 85.75,19.6563 Q85.0625,20.7188 85.0625,22.8125 Q85.0625,24.9063 85.75,25.9844 Q86.4375,27.0469 87.7813,27.0469 Q88.4063,27.0469 89,26.7813 Q89.5938,26.5 90.2188,25.9219 L90.2188,28.6406 Z " fill="#000000"/><text fill="#000000" font-family="sans-serif" font-size="14" lengthAdjust="spacing" textLength="33" x="107.75" y="27.8467">DISH</text><line style="stroke:#181818;stroke-width:0.5;" x1="8" x2="208" y1="39" y2="39"/><rect fill="none" height="6" style="stroke:#C82930;stroke-width:1.0;" width="6" x="15" y="49.6484"/><text fill="#000000" font-family="sans-serif" font-size="14" lengthAdjust="spacing" textLength="92" x="27" y="55.9951">name : String</text><rect fill="none" height="6" style="stroke:#C82930;stroke-width:1.0;" width="6" x="15" y="65.9453"/><text fill="#000000" font-family="sans-serif" font-size="14" lengthAdjust="spacing" textLength="95" x="27" y="72.292">price : double</text><rect fill="none" height="6" style="stroke:#C82930;stroke-width:1.0;" width="6" x="15" y="82.2422"/><text fill="#000000" font-family="sans-serif" font-size="14" lengthAdjust="spacing" textLength="176" x="27" y="88.5889">weight_in_grams : double</text></g><!--class USAGE--><g id="elem_USAGE"><rect codeLine="22" fill="#F1F1F1" height="56.2969" id="USAGE" rx="2.5" ry="2.5" style="stroke:#181818;stroke-width:0.5;" width="202" x="289" y="23.3"/><ellipse cx="361.75" cy="39.3" fill="#ADD1B2" rx="11" ry="11" style="stroke:#181818;stroke-width:1.0;"/><path d="M364.7188,44.9406 Q364.1406,45.2375 363.5,45.3781 Q362.8594,45.5344 362.1563,45.5344 Q359.6563,45.5344 358.3281,43.8938 Q357.0156,42.2375 357.0156,39.1125 Q357.0156,35.9875 358.3281,34.3313 Q359.6563,32.675 362.1563,32.675 Q362.8594,32.675 363.5,32.8313 Q364.1563,32.9875 364.7188,33.2844 L364.7188,36.0031 Q364.0938,35.425 363.5,35.1594 Q362.9063,34.8781 362.2813,34.8781 Q360.9375,34.8781 360.25,35.9563 Q359.5625,37.0188 359.5625,39.1125 Q359.5625,41.2063 360.25,42.2844 Q360.9375,43.3469 362.2813,43.3469 Q362.9063,43.3469 363.5,43.0813 Q364.0938,42.8 364.7188,42.2219 L364.7188,44.9406 Z " fill="#000000"/><text fill="#000000" font-family="sans-serif" font-size="14" lengthAdjust="spacing" textLength="48" x="382.25" y="44.1467">USAGE</text><line style="stroke:#181818;stroke-width:0.5;" x1="290" x2="490" y1="55.3" y2="55.3"/><rect fill="none" height="6" style="stroke:#C82930;stroke-width:1.0;" width="6" x="297" y="65.9484"/><text fill="#000000" font-family="sans-serif" font-size="14" lengthAdjust="spacing" textLength="176" x="309" y="72.2951">weight_in_grams : double</text></g><!--link INGREDIENT to INGREDIENT_COST--><g id="link_INGREDIENT_INGREDIENT_COST"><path codeLine="14" d="M654,79.88 C654,105.12 654,142.99 654,172.43 " fill="none" id="INGREDIENT-INGREDIENT_COST" style="stroke:#181818;stroke-width:1.0;"/><polygon fill="#000000" points="659,139.4564,661.9389,130.4113,656.0611,130.4113,659,139.4564" style="stroke:#000000;stroke-width:1.0;"/><text fill="#000000" font-family="sans-serif" font-size="13" lengthAdjust="spacing" textLength="23" x="668" y="138.9569">has</text><text fill="#000000" font-family="sans-serif" font-size="13" lengthAdjust="spacing" textLength="8" x="645.125" y="99.8215">1</text><text fill="#000000" font-family="sans-serif" font-size="13" lengthAdjust="spacing" textLength="23" x="629.3109" y="161.8096">0..*</text></g><!--link USAGE to INGREDIENT--><g id="link_USAGE_INGREDIENT"><path codeLine="26" d="M491.31,51.44 C526.21,51.44 564.14,51.44 594.59,51.44 " fill="none" id="USAGE-INGREDIENT" style="stroke:#181818;stroke-width:1.0;"/><polygon fill="#000000" points="518.5,40.0064,509.4549,37.0675,509.4549,42.9453,518.5,40.0064" style="stroke:#000000;stroke-width:1.0;"/><text fill="#000000" font-family="sans-serif" font-size="13" lengthAdjust="spacing" textLength="54" x="522.5" y="44.5069">contains</text><text fill="#000000" font-family="sans-serif" font-size="13" lengthAdjust="spacing" textLength="23" x="498.8894" y="64.0147">0..*</text><text fill="#000000" font-family="sans-serif" font-size="13" lengthAdjust="spacing" textLength="8" x="578.8619" y="47.5999">1</text></g><!--link DISH to USAGE--><g id="link_DISH_USAGE"><path codeLine="27" d="M209.41,51.44 C235.15,51.44 262.8,51.44 288.54,51.44 " fill="none" id="DISH-USAGE" style="stroke:#181818;stroke-width:1.0;"/><polygon fill="#000000" points="236.5,40.0064,227.4549,37.0675,227.4549,42.9453,236.5,40.0064" style="stroke:#000000;stroke-width:1.0;"/><text fill="#000000" font-family="sans-serif" font-size="13" lengthAdjust="spacing" textLength="30" x="240.5" y="44.5069">uses</text><text fill="#000000" font-family="sans-serif" font-size="13" lengthAdjust="spacing" textLength="8" x="217.151" y="47.9606">1</text><text fill="#000000" font-family="sans-serif" font-size="13" lengthAdjust="spacing" textLength="23" x="257.9505" y="64.0147">0..*</text></g><!--SRC=[VO_12e9048RlFiNWCL3gwY685FDYa7LULXrqmLrbToKYUlTqDyimsil2Fz_CV5Ep4W5vfs_0aUSebUCK3LKAaZG-HM4IfMUuEp0yJr2E442c9HELyrY2P7_CthJIL6fIKZtsXCDdOnJbCYnQfKc7abIIyg5IjdtUuBXYPk5kNF0ySDU-lt8NMmEegOBj91KcsU6tjuawoGhyB3BP5LbLQyA4iL1V6dRe9Tl5qJJr7sx1bwbdp6U7152qGbCcHbyZQawRUDiSGAzm19u0]--></g></svg>