<?xml version="1.0" encoding="us-ascii" standalone="no"?><svg xmlns="http://www.w3.org/2000/svg" xmlns:xlink="http://www.w3.org/1999/xlink" contentStyleType="text/css" height="102px" preserveAspectRatio="none" style="width:981px;height:102px;background:#FFFFFF;" version="1.1" viewBox="0 0 981 102" width="981px" zoomAndPan="magnify"><defs/><g><!--class INGREDIENT--><g id="elem_INGREDIENT"><rect codeLine="4" fill="#F1F1F1" height="56.2969" id="INGREDIENT" rx="2.5" ry="2.5" style="stroke:#181818;stroke-width:0.5;" width="118" x="595" y="23.3"/><ellipse cx="610.45" cy="39.3" fill="#ADD1B2" rx="11" ry="11" style="stroke:#181818;stroke-width:1.0;"/><path d="M613.4188,44.9406 Q612.8406,45.2375 612.2,45.3781 Q611.5594,45.5344 610.8563,45.5344 Q608.3563,45.5344 607.0281,43.8938 Q605.7156,42.2375 605.7156,39.1125 Q605.7156,35.9875 607.0281,34.3313 Q608.3563,32.675 610.8563,32.675 Q611.5594,32.675 612.2,32.8313 Q612.8563,32.9875 613.4188,33.2844 L613.4188,36.0031 Q612.7938,35.425 612.2,35.1594 Q611.6063,34.8781 610.9813,34.8781 Q609.6375,34.8781 608.95,35.9563 Q608.2625,37.0188 608.2625,39.1125 Q608.2625,41.2063 608.95,42.2844 Q609.6375,43.3469 610.9813,43.3469 Q611.6063,43.3469 612.2,43.0813 Q612.7938,42.8 613.4188,42.2219 L613.4188,44.9406 Z " fill="#000000"/><text fill="#000000" font-family="sans-serif" font-size="14" lengthAdjust="spacing" textLength="85" x="624.55" y="44.1467">INGREDIENT</text><line style="stroke:#181818;stroke-width:0.5;" x1="596" x2="712" y1="55.3" y2="55.3"/><rect fill="none" height="6" style="stroke:#C82930;stroke-width:1.0;" width="6" x="603" y="65.9484"/><text fill="#000000" font-family="sans-serif" font-size="14" lengthAdjust="spacing" textLength="92" x="615" y="72.2951">name : String</text></g><!--class INGREDIENT_COST--><g id="elem_INGREDIENT_COST"><rect codeLine="8" fill="#F1F1F1" height="88.8906" id="INGREDIENT_COST" rx="2.5" ry="2.5" style="stroke:#181818;stroke-width:0.5;" width="189" x="785.5" y="7"/><ellipse cx="812.2" cy="23" fill="#ADD1B2" rx="11" ry="11" style="stroke:#181818;stroke-width:1.0;"/><path d="M815.1688,28.6406 Q814.5906,28.9375 813.95,29.0781 Q813.3094,29.2344 812.6063,29.2344 Q810.1063,29.2344 808.7781,27.5938 Q807.4656,25.9375 807.4656,22.8125 Q807.4656,19.6875 808.7781,18.0313 Q810.1063,16.375 812.6063,16.375 Q813.3094,16.375 813.95,16.5313 Q814.6063,16.6875 815.1688,16.9844 L815.1688,19.7031 Q814.5438,19.125 813.95,18.8594 Q813.3563,18.5781 812.7313,18.5781 Q811.3875,18.5781 810.7,19.6563 Q810.0125,20.7188 810.0125,22.8125 Q810.0125,24.9063 810.7,25.9844 Q811.3875,27.0469 812.7313,27.0469 Q813.3563,27.0469 813.95,26.7813 Q814.5438,26.5 815.1688,25.9219 L815.1688,28.6406 Z " fill="#000000"/><text fill="#000000" font-family="sans-serif" font-size="14" lengthAdjust="spacing" textLength="131" x="828.8" y="27.8467">INGREDIENT_COST</text><line style="stroke:#181818;stroke-width:0.5;" x1="786.5" x2="973.5" y1="39" y2="39"/><rect fill="none" height="6" style="stroke:#C82930;stroke-width:1.0;" width="6" x="793.5" y="49.6484"/><text fill="#000000" font-family="sans-serif" font-size="14" lengthAdjust="spacing" textLength="115" x="805.5" y="55.9951">start_date : Date</text><rect fill="none" height="6" style="stroke:#C82930;stroke-width:1.0;" width="6" x="793.5" y="65.9453"/><text fill="#000000" font-family="sans-serif" font-size="14" lengthAdjust="spacing" textLength="111" x="805.5" y="72.292">end_date : Date</text><rect fill="none" height="6" style="stroke:#C82930;stroke-width:1.0;" width="6" x="793.5" y="82.2422"/><text fill="#000000" font-family="sans-serif" font-size="14" lengthAdjust="spacing" textLength="163" x="805.5" y="88.5889">cost_per_gram : double</text></g><!--class DISH--><g id="elem_DISH"><rect codeLine="16" fill="#F1F1F1" height="88.8906" id="DISH" rx="2.5" ry="2.5" style="stroke:#181818;stroke-width:0.5;" width="202" x="7" y="7"/><ellipse cx="87.25" cy="23" fill="#ADD1B2" rx="11" ry="11" style="stroke:#181818;stroke-width:1.0;"/><path d="M90.2188,28.6406 Q89.6406,28.9375 89,29.0781 Q88.3594,29.2344 87.6563,29.2344 Q85.1563,29.2344 83.8281,27.5938 Q82.5156,25.9375 82.5156,22.8125 Q82.5156,19.6875 83.8281,18.0313 Q85.1563,16.375 87.6563,16.375 Q88.3594,16.375 89,16.5313 Q89.6563,16.6875 90.2188,16.9844 L90.2188,19.7031 Q89.5938,19.125 89,18.8594 Q88.4063,18.5781 87.7813,18.5781 Q86.4375,18.5781 85.75,19.6563 Q85.0625,20.7188 85.0625,22.8125 Q85.0625,24.9063 85.75,25.9844 Q86.4375,27.0469 87.7813,27.0469 Q88.4063,27.0469 89,26.7813 Q89.5938,26.5 90.2188,25.9219 L90.2188,28.6406 Z " fill="#000000"/><text fill="#000000" font-family="sans-serif" font-size="14" lengthAdjust="spacing" textLength="33" x="107.75" y="27.8467">DISH</text><line style="stroke:#181818;stroke-width:0.5;" x1="8" x2="208" y1="39" y2="39"/><rect fill="none" height="6" style="stroke:#C82930;stroke-width:1.0;" width="6" x="15" y="49.6484"/><text fill="#000000" font-family="sans-serif" font-size="14" lengthAdjust="spacing" textLength="92" x="27" y="55.9951">name : String</text><rect fill="none" height="6" style="stroke:#C82930;stroke-width:1.0;" width="6" x="15" y="65.9453"/><text fill="#000000" font-family="sans-serif" font-size="14" lengthAdjust="spacing" textLength="95" x="27" y="72.292">price : double</text><rect fill="none" height="6" style="stroke:#C82930;stroke-width:1.0;" width="6" x="15" y="82.2422"/><text fill="#000000" font-family="sans-serif" font-size="14" lengthAdjust="spacing" textLength="176" x="27" y="88.5889">weight_in_grams : double</text></g><!--class USAGE--><g id="elem_USAGE"><rect codeLine="22" fill="#F1F1F1" height="56.2969" id="USAGE" rx="2.5" ry="2.5" style="stroke:#181818;stroke-width:0.5;" width="202" x="289" y="23.3"/><ellipse cx="361.75" cy="39.3" fill="#ADD1B2" rx="11" ry="11" style="stroke:#181818;stroke-width:1.0;"/><path d="M364.7188,44.9406 Q364.1406,45.2375 363.5,45.3781 Q362.8594,45.5344 362.1563,45.5344 Q359.6563,45.5344 358.3281,43.8938 Q357.0156,42.2375 357.0156,39.1125 Q357.0156,35.9875 358.3281,34.3313 Q359.6563,32.675 362.1563,32.675 Q362.8594,32.675 363.5,32.8313 Q364.1563,32.9875 364.7188,33.2844 L364.7188,36.0031 Q364.0938,35.425 363.5,35.1594 Q362.9063,34.8781 362.2813,34.8781 Q360.9375,34.8781 360.25,35.9563 Q359.5625,37.0188 359.5625,39.1125 Q359.5625,41.2063 360.25,42.2844 Q360.9375,43.3469 362.2813,43.3469 Q362.9063,43.3469 363.5,43.0813 Q364.0938,42.8 364.7188,42.2219 L364.7188,44.9406 Z " fill="#000000"/><text fill="#000000" font-family="sans-serif" font-size="14" lengthAdjust="spacing" textLength="48" x="382.25" y="44.1467">USAGE</text><line style="stroke:#181818;stroke-width:0.5;" x1="290" x2="490" y1="55.3" y2="55.3"/><rect fill="none" height="6" style="stroke:#C82930;stroke-width:1.0;" width="6" x="297" y="65.9484"/><text fill="#000000" font-family="sans-serif" font-size="14" lengthAdjust="spacing" textLength="176" x="309" y="72.2951">weight_in_grams : double</text></g><!--link INGREDIENT to INGREDIENT_COST--><g id="link_INGREDIENT_INGREDIENT_COST"><path codeLine="14" d="M713.38,51.44 C735.35,51.44 760.84,51.44 785.18,51.44 " fill="none" id="INGREDIENT-INGREDIENT_COST" style="stroke:#181818;stroke-width:1.0;"/><polygon fill="#000000" points="740.25,40.0064,731.2049,37.0675,731.2049,42.9453,740.25,40.0064" style="stroke:#000000;stroke-width:1.0;"/><text fill="#000000" font-family="sans-serif" font-size="13" lengthAdjust="spacing" textLength="23" x="744.25" y="44.5069">has</text><text fill="#000000" font-family="sans-serif" font-size="13" lengthAdjust="spacing" textLength="8" x="721.1044" y="47.5999">1</text><text fill="#000000" font-family="sans-serif" font-size="13" lengthAdjust="spacing" textLength="23" x="754.3721" y="64.0622">0..*</text></g><!--link USAGE to INGREDIENT--><g id="link_USAGE_INGREDIENT"><path codeLine="26" d="M491.31,51.44 C526.21,51.44 564.14,51.44 594.59,51.44 " fill="none" id="USAGE-INGREDIENT" style="stroke:#181818;stroke-width:1.0;"/><polygon fill="#000000" points="518.5,40.0064,509.4549,37.0675,509.4549,42.9453,518.5,40.0064" style="stroke:#000000;stroke-width:1.0;"/><text fill="#000000" font-family="sans-serif" font-size="13" lengthAdjust="spacing" textLength="54" x="522.5" y="44.5069">contains</text><text fill="#000000" font-family="sans-serif" font-size="13" lengthAdjust="spacing" textLength="23" x="498.8894" y="64.0147">0..*</text><text fill="#000000" font-family="sans-serif" font-size="13" lengthAdjust="spacing" textLength="8" x="578.8619" y="47.5999">1</text></g><!--link DISH to USAGE--><g id="link_DISH_USAGE"><path codeLine="27" d="M209.41,51.44 C235.15,51.44 262.8,51.44 288.54,51.44 " fill="none" id="DISH-USAGE" style="stroke:#181818;stroke-width:1.0;"/><polygon fill="#000000" points="236.5,40.0064,227.4549,37.0675,227.4549,42.9453,236.5,40.0064" style="stroke:#000000;stroke-width:1.0;"/><text fill="#000000" font-family="sans-serif" font-size="13" lengthAdjust="spacing" textLength="30" x="240.5" y="44.5069">uses</text><text fill="#000000" font-family="sans-serif" font-size="13" lengthAdjust="spacing" textLength="8" x="217.151" y="47.9606">1</text><text fill="#000000" font-family="sans-serif" font-size="13" lengthAdjust="spacing" textLength="23" x="257.9505" y="64.0147">0..*</text></g><!--SRC=[VOz12u9048Nl_eh1Ow3KrKCGAUN58Ekyh3heWhlAxaf4zD_JtIp5Q2u3RzxC-wPY1GBoLj-18yzGAiV9QweKnCdX78Lnb5pWuK1Vdg0S8O1KIoPAvxaqalqf_RYLfbAJWkfX9-oRbL4KIp5lb2OjIb9Aolj9qNHPZKF4XCBTkE21k_RzbRi83Q2Y2hOZKnYdnz_OHcebo_6ROxGRihBIX0a3eMOKzkWrtHsYyUe_kpM-IJq3FlaZWBmHcZ8ny1hGsMTsEO1EuM1u0G00]--></g></svg>